<?xml version="1.0" encoding="UTF-8"?>
<svg version="1.1" xmlns="http://www.w3.org/2000/svg" width="1484" height="396">
<path d="M0 0 C28.38 0 56.76 0 86 0 C87.98 36.3 89.96 72.6 92 110 C97.28 97.79 102.56 85.58 108 73 C117.0402648 52.17830099 117.0402648 52.17830099 121.44873047 42.04492188 C122.88346823 38.74651905 124.3171278 35.44765116 125.75 32.1484375 C126.20076904 31.11072205 126.65153809 30.07300659 127.1159668 29.00384521 C130.34843564 21.54527213 133.52166979 14.06317322 136.62792969 6.55111694 C138.89409057 1.10590943 138.89409057 1.10590943 140 0 C142.64738089 -0.09511266 145.26859001 -0.12555635 147.91625977 -0.11352539 C148.74545929 -0.11367142 149.57465881 -0.11381744 150.4289856 -0.1139679 C153.18315198 -0.11326851 155.93725161 -0.10547493 158.69140625 -0.09765625 C160.59569766 -0.09579216 162.49998955 -0.09436822 164.40428162 -0.09336853 C169.42667963 -0.08954263 174.44904892 -0.07971173 179.47143555 -0.06866455 C184.5922812 -0.05845198 189.71313148 -0.05387124 194.83398438 -0.04882812 C204.88933557 -0.03808953 214.9446654 -0.02101224 225 0 C224.38339427 8.13769782 222.97131391 16.05104868 221.42724609 24.05810547 C221.16222455 25.44935626 220.89758717 26.84068029 220.63330078 28.23207092 C219.91783715 31.99279948 219.19698966 35.75247761 218.47511244 39.51197958 C217.71189319 43.49170007 216.95360882 47.47236088 216.19473267 51.45291138 C214.91475048 58.16316799 213.63160697 64.87281342 212.34619141 71.58203125 C210.55904218 80.91006087 208.77742771 90.23914069 206.99704623 99.56846404 C205.59025499 106.9390778 204.18202793 114.30941739 202.7734375 121.6796875 C202.55435203 122.82604306 202.55435203 122.82604306 202.33084059 123.99555731 C197.93254951 147.00597017 193.4797846 170.00528911 189 193 C170.19 193 151.38 193 132 193 C133.125 181.75 133.125 181.75 133.87953186 177.81124878 C134.04918961 176.91401596 134.21884735 176.01678314 134.39364624 175.09236145 C134.66877548 173.67354927 134.66877548 173.67354927 134.94946289 172.22607422 C135.14468033 171.20048904 135.33989777 170.17490387 135.54103088 169.11824036 C136.18076539 165.76291644 136.8266582 162.4088106 137.47265625 159.0546875 C137.92001418 156.71492697 138.36698405 154.37509221 138.81358337 152.03518677 C139.98515572 145.90249334 141.16197032 139.77081741 142.33990479 133.63934326 C143.54294149 127.37215105 144.74098264 121.10400421 145.93945312 114.8359375 C148.2880994 102.55635588 150.6422887 90.27784409 153 78 C151.73946165 80.51202577 150.47992931 83.02454787 149.22094727 85.53735352 C148.69303463 86.5890057 148.69303463 86.5890057 148.15445709 87.66190338 C144.63065975 94.69871106 141.26573394 101.8064815 137.9375 108.9375 C137.62118622 109.61331116 137.30487244 110.28912231 136.97897339 110.9854126 C131.78411556 122.08582228 126.69593384 133.2327294 121.64691162 144.40008545 C114.28000894 160.68690824 106.6407146 176.83955053 99 193 C84.15 193 69.3 193 54 193 C52.84878293 190.69756587 52.74175026 189.07217936 52.53807068 186.50753784 C52.4224176 185.08983597 52.4224176 185.08983597 52.3044281 183.64349365 C52.18358604 182.08335541 52.18358604 182.08335541 52.06030273 180.49169922 C51.92841049 178.85266129 51.92841049 178.85266129 51.79385376 177.18051147 C51.50314785 173.55554048 51.2183586 169.93012965 50.93359375 166.3046875 C50.7336036 163.79644931 50.5332461 161.28824039 50.33253479 158.78005981 C49.85846341 152.84465138 49.38810798 146.90895584 48.9195376 140.97311127 C48.38592792 134.21597852 47.84759424 127.45922478 47.3088578 120.70249915 C46.20063764 106.80208226 45.09836906 92.90119851 44 79 C43.67 79 43.34 79 43 79 C42.89269341 79.56322338 42.78538683 80.12644676 42.67482853 80.70673752 C40.06373989 94.41121107 37.45137416 108.11544065 34.83763218 121.81940842 C33.57367034 128.44654484 32.31013593 135.07376223 31.04760742 141.70117188 C29.82967625 148.09446951 28.61055436 154.48753942 27.39069939 160.88047028 C26.92501143 163.32207945 26.45972555 165.76376534 25.99484444 168.20552826 C25.34470715 171.61996895 24.69315336 175.03413645 24.04125977 178.44824219 C23.84848953 179.46244232 23.6557193 180.47664246 23.45710754 181.52157593 C23.18999969 182.91815933 23.18999969 182.91815933 22.91749573 184.34295654 C22.7635563 185.1504472 22.60961687 185.95793785 22.45101261 186.78989792 C22.02596574 188.87275978 21.51557954 190.93768186 21 193 C2.19 193 -16.62 193 -36 193 C-35.41393995 187.13939947 -34.86965521 181.72213042 -33.7744751 176.01208496 C-33.65464193 175.3807677 -33.53480876 174.74945045 -33.41134429 174.09900236 C-33.01568558 172.02026216 -32.61383308 169.94277243 -32.21191406 167.86523438 C-31.92393897 166.35923859 -31.63635226 164.85316849 -31.34912109 163.34703064 C-30.57181581 159.27706286 -29.78910643 155.20815145 -29.00539112 151.13941383 C-28.17976875 146.84806551 -27.35918042 142.55575467 -26.5380249 138.2635498 C-24.97862501 130.11662894 -23.41473085 121.9705776 -21.84921241 113.82483053 C-20.08699941 104.65445684 -18.32982468 95.48312024 -16.57307863 86.31169796 C-13.82053244 71.94219886 -11.06514113 57.57324786 -8.30566406 43.20507812 C-8.17305931 42.51459318 -8.04045456 41.82410824 -7.90383148 41.11269951 C-5.2717374 27.40798232 -2.63540039 13.70408205 0 0 Z " fill="#0C61AC" transform="translate(453,152)"/>
<path d="M0 0 C2.77388373 0.19639039 5.54823089 0.38528396 8.32263184 0.57421875 C82.95905705 5.73389886 157.45175361 16.97397968 229.59313965 37.05859375 C230.2928891 37.25177185 230.99263855 37.44494995 231.71359253 37.64398193 C233.67566865 38.1882831 235.63449945 38.74424279 237.59313965 39.30078125 C239.26376465 39.77427002 239.26376465 39.77427002 240.96813965 40.25732422 C243.59313965 41.18359375 243.59313965 41.18359375 245.59313965 43.18359375 C236.66110078 42.163552 227.78524299 40.93633687 218.91345215 39.484375 C158.60160891 29.62794634 97.91875482 22.9560796 36.90563965 19.43359375 C35.87972717 19.37433716 34.8538147 19.31508057 33.79681396 19.25402832 C26.73081194 18.85331311 19.66329245 18.50235559 12.59313965 18.18359375 C11.01149017 18.11100845 11.01149017 18.11100845 9.39788818 18.03695679 C-13.28314718 17.03099583 -35.95813365 16.98191256 -58.65686035 16.99609375 C-60.09539934 16.99649406 -60.09539934 16.99649406 -61.56299973 16.99690247 C-91.88637076 17.0074776 -122.13412623 17.26032858 -152.40686035 19.18359375 C-153.45464661 19.24911438 -154.50243286 19.31463501 -155.58197021 19.38214111 C-252.6476522 25.4950049 -349.87392035 38.92819058 -559.69714355 107.28955078 C-560.54881104 107.67353027 -561.40047852 108.05750977 -562.2779541 108.453125 C-563.0094165 108.78932861 -563.74087891 109.12553223 -564.49450684 109.47192383 C-566.40686035 110.18359375 -566.40686035 110.18359375 -569.40686035 110.18359375 C-559.29401778 139.41959352 -548.68980154 168.47846681 -537.96936035 197.49609375 C-531.43814655 215.17853726 -524.94769783 232.87387277 -518.59436035 250.62109375 C-518.27154083 251.51962067 -517.94872131 252.41814758 -517.61611938 253.34390259 C-516.72382466 255.82958695 -515.83594908 258.3167963 -514.9498291 260.8046875 C-514.68844147 261.53197052 -514.42705383 262.25925354 -514.15774536 263.00857544 C-512.40686035 267.95295744 -512.40686035 267.95295744 -512.40686035 270.18359375 C-532.86686035 270.18359375 -553.32686035 270.18359375 -574.40686035 270.18359375 C-577.7871501 261.16948776 -577.7871501 261.16948776 -578.7935791 257.75390625 C-579.00949707 257.02171875 -579.22541504 256.28953125 -579.44787598 255.53515625 C-579.66121582 254.80039062 -579.87455566 254.065625 -580.09436035 253.30859375 C-580.43177246 252.17164063 -580.43177246 252.17164063 -580.77600098 251.01171875 C-582.40686035 245.44002897 -582.40686035 245.44002897 -582.40686035 243.18359375 C-602.53686035 243.18359375 -622.66686035 243.18359375 -643.40686035 243.18359375 C-644.06686035 246.15359375 -644.72686035 249.12359375 -645.40686035 252.18359375 C-647.38686035 258.12359375 -649.36686035 264.06359375 -651.40686035 270.18359375 C-671.53686035 270.18359375 -691.66686035 270.18359375 -712.40686035 270.18359375 C-703.19259322 243.69257576 -703.19259322 243.69257576 -698.72814941 231.70776367 C-696.94402459 226.91261106 -695.16441998 222.11580264 -693.38650513 217.31834412 C-692.6061374 215.21275159 -691.82551496 213.10725346 -691.04464722 211.00184631 C-686.8366842 199.65413396 -682.65308173 188.29747399 -678.47113037 176.94015503 C-677.15629334 173.36955395 -675.84096933 169.79913262 -674.5255127 166.22875977 C-670.35215457 154.90079235 -666.18123606 143.57193526 -662.01541138 132.24119568 C-660.32456145 127.6423133 -658.63278324 123.04377256 -656.94078255 118.44531345 C-655.78712567 115.30972736 -654.63417511 112.17388566 -653.48217773 109.03768921 C-652.20704106 105.56632383 -650.93017318 102.09559964 -649.6529541 98.625 C-649.28095383 97.61086029 -648.90895355 96.59672058 -648.52568054 95.55184937 C-648.17250259 94.59315948 -647.81932465 93.6344696 -647.45544434 92.64672852 C-647.15460434 91.82825943 -646.85376434 91.00979034 -646.54380798 90.16651917 C-644.88621777 85.8176223 -643.13534421 81.5048034 -641.40686035 77.18359375 C-621.93686035 77.18359375 -602.46686035 77.18359375 -582.40686035 77.18359375 C-573.40686035 98.78359375 -573.40686035 98.78359375 -573.40686035 103.18359375 C-572.70005127 102.85262695 -571.99324219 102.52166016 -571.26501465 102.18066406 C-563.28798125 98.4498748 -555.30037801 94.74252866 -547.30230713 91.05706787 C-545.53812491 90.24408407 -543.7744731 89.42994954 -542.01086426 88.61572266 C-496.09019163 67.51023779 -448.18693299 51.25190029 -399.40686035 38.18359375 C-398.52919006 37.94811829 -397.65151978 37.71264282 -396.74725342 37.47003174 C-320.05994495 16.96768852 -241.53636795 5.55748412 -162.40686035 0.18359375 C-161.10455475 0.09271484 -161.10455475 0.09271484 -159.77593994 0 C-106.96577394 -3.66675373 -52.80831975 -3.74287446 0 0 Z M-586.34436035 111.62109375 C-587.44304443 112.1944043 -588.54172852 112.76771484 -589.67370605 113.35839844 C-607.80384755 122.96279079 -625.2880043 133.88901015 -642.40686035 145.18359375 C-641.74686035 145.51359375 -641.08686035 145.84359375 -640.40686035 146.18359375 C-638.41355047 145.38028003 -638.41355047 145.38028003 -636.2076416 144.078125 C-635.34018311 143.59529053 -634.47272461 143.11245605 -633.57897949 142.61499023 C-632.63530518 142.08075439 -631.69163086 141.54651855 -630.71936035 140.99609375 C-628.70466835 139.87722459 -626.68901333 138.76008805 -624.67248535 137.64453125 C-623.63285645 137.06799805 -622.59322754 136.49146484 -621.52209473 135.89746094 C-616.70216983 133.24574677 -611.84406111 130.67046515 -606.96936035 128.12109375 C-606.03438721 127.63181396 -605.09941406 127.14253418 -604.1361084 126.63842773 C-596.02587989 122.43263656 -587.79679486 118.48970601 -579.50280762 114.65991211 C-578.12886841 114.01807983 -578.12886841 114.01807983 -576.72717285 113.36328125 C-575.91522461 112.98929199 -575.10327637 112.61530273 -574.26672363 112.22998047 C-572.2411193 111.31897589 -572.2411193 111.31897589 -571.40686035 109.18359375 C-571.90186035 107.69859375 -571.90186035 107.69859375 -572.40686035 106.18359375 C-577.57791927 106.18359375 -581.83389433 109.25956444 -586.34436035 111.62109375 Z M-612.40686035 144.18359375 C-614.62674986 151.18871606 -616.8435652 158.19480321 -619.05643463 165.20214653 C-620.08399764 168.45572235 -621.11262626 171.70895329 -622.14367676 174.96142578 C-623.32831294 178.69854885 -624.50833877 182.43711948 -625.68811035 186.17578125 C-626.0599646 187.34664276 -626.43181885 188.51750427 -626.81494141 189.72384644 C-627.32547058 191.34530075 -627.32547058 191.34530075 -627.84631348 192.99951172 C-628.29931824 194.43180618 -628.29931824 194.43180618 -628.76147461 195.89303589 C-629.49726026 198.1078109 -629.49726026 198.1078109 -629.40686035 200.18359375 C-618.18686035 200.18359375 -606.96686035 200.18359375 -595.40686035 200.18359375 C-596.90279966 192.47714765 -596.90279966 192.47714765 -598.79553223 184.93334961 C-599.04919556 184.03639877 -599.30285889 183.13944794 -599.56420898 182.21531677 C-599.83197144 181.28574661 -600.09973389 180.35617645 -600.37561035 179.3984375 C-600.65658569 178.41613663 -600.93756104 177.43383575 -601.22705078 176.42176819 C-601.81659389 174.36658498 -602.40829465 172.31201958 -603.0020752 170.25805664 C-603.9126826 167.10090755 -604.81037687 163.94026029 -605.7076416 160.77929688 C-606.28368361 158.77711891 -606.8604791 156.77515754 -607.43811035 154.7734375 C-607.7058728 153.82564926 -607.97363525 152.87786102 -608.24951172 151.90135193 C-608.50317505 151.03277054 -608.75683838 150.16418915 -609.01818848 149.26928711 C-609.23865845 148.5022496 -609.45912842 147.7352121 -609.6862793 146.94493103 C-610.26428632 144.98050903 -610.26428632 144.98050903 -612.40686035 144.18359375 Z M-644.40686035 146.18359375 C-644.73686035 146.84359375 -645.06686035 147.50359375 -645.40686035 148.18359375 C-644.41686035 147.85359375 -643.42686035 147.52359375 -642.40686035 147.18359375 C-643.06686035 146.85359375 -643.72686035 146.52359375 -644.40686035 146.18359375 Z " fill="#EC3136" transform="translate(926.4068603515625,74.81640625)"/>
<path d="M0 0 C1.01608337 -0.00571014 2.03216675 -0.01142029 3.07904053 -0.01730347 C4.20359146 -0.01842133 5.3281424 -0.01953918 6.48677063 -0.02069092 C8.25279129 -0.02813828 8.25279129 -0.02813828 10.05448914 -0.03573608 C13.2970079 -0.04787685 16.53949053 -0.05531343 19.78202796 -0.05974674 C21.81219559 -0.06267745 23.84235757 -0.06678265 25.87252235 -0.07125092 C32.23599652 -0.08494569 38.59945775 -0.09459781 44.96294564 -0.09845281 C52.28447307 -0.10291299 59.60581189 -0.12035668 66.92728204 -0.1494534 C72.59711697 -0.17119412 78.2668994 -0.18116394 83.93677551 -0.18249393 C87.31647187 -0.18353485 90.69599145 -0.18928623 94.07564354 -0.20731354 C126.74607604 -0.35572253 126.74607604 -0.35572253 139.80439758 6.51544189 C140.90783508 7.08005127 142.01127258 7.64466064 143.14814758 8.22637939 C152.43056003 13.85556516 158.32820338 21.60513538 161.24189758 32.07794189 C164.85867202 49.53280981 160.10899409 66.67987764 151.11689758 81.76544189 C144.6004807 91.51895572 136.91170099 98.17961178 126.30439758 103.14044189 C127.00564758 103.82106689 127.70689758 104.50169189 128.42939758 105.20294189 C129.39000538 106.1798773 130.34815559 107.15923275 131.30439758 108.14044189 C132.06043274 108.88487549 132.06043274 108.88487549 132.83174133 109.64434814 C141.31027232 118.59750428 142.49882831 130.07688607 142.49189758 141.82794189 C142.49254211 142.95554932 142.49318665 144.08315674 142.49385071 145.24493408 C142.45427811 151.54956869 142.15202286 157.64446559 141.30439758 163.89044189 C140.1304813 173.57525122 140.30439758 183.38474555 140.30439758 193.14044189 C120.50439758 193.14044189 100.70439758 193.14044189 80.30439758 193.14044189 C80.30439758 168.14044189 80.30439758 168.14044189 81.30439758 158.14044189 C82.1700035 145.19929737 82.1700035 145.19929737 78.30439758 133.14044189 C72.81597032 127.50367876 66.39727423 126.84172246 58.84346008 126.72637939 C58.05289215 126.70701324 57.26232422 126.68764709 56.44779968 126.66769409 C53.94177276 126.60828137 51.43569893 126.56166763 48.92939758 126.51544189 C47.22234715 126.47722676 45.51531528 126.43817301 43.80830383 126.39825439 C39.64048715 126.30261178 35.47258028 126.21844075 31.30439758 126.14044189 C31.1286898 127.3248587 31.1286898 127.3248587 30.94943237 128.53320312 C29.76709387 136.37616558 28.42580816 144.17462449 26.95674133 151.96856689 C26.73998245 153.12419128 26.52322357 154.27981567 26.29989624 155.47045898 C25.846385 157.88393958 25.39173899 160.2972072 24.93598938 162.71026611 C24.23597469 166.42184596 23.54251974 170.13461529 22.84931946 173.84747314 C22.40635644 176.20041238 21.96301125 178.55327971 21.51924133 180.90606689 C21.31193893 182.0194342 21.10463654 183.13280151 20.89105225 184.27990723 C20.69737564 185.29897156 20.50369904 186.31803589 20.30415344 187.36798096 C20.13475754 188.26808899 19.96536163 189.16819702 19.79083252 190.09558105 C19.30439758 192.14044189 19.30439758 192.14044189 18.30439758 193.14044189 C16.43258818 193.2343057 14.55721698 193.25787993 12.68305969 193.25396729 C11.48189011 193.25389175 10.28072052 193.25381622 9.04315186 193.2537384 C7.73588638 193.24857712 6.42862091 193.24341583 5.08174133 193.23809814 C3.73795626 193.23623388 2.39417051 193.23481002 1.05038452 193.23381042 C-2.49242518 193.22998591 -6.03519411 193.22015621 -9.57798767 193.20910645 C-13.19075468 193.19889089 -16.80352826 193.1943125 -20.41630554 193.18927002 C-27.50942167 193.17853387 -34.60250785 193.16106241 -41.69560242 193.14044189 C-40.19783822 182.78559871 -38.31814402 172.52498875 -36.36332703 162.24884033 C-36.02950266 160.48505516 -35.69586435 158.72123476 -35.36239624 156.9573822 C-34.46381366 152.20782439 -33.56236773 147.45881452 -32.66015697 142.70994473 C-31.90624473 138.74047882 -31.15363271 134.77076681 -30.40097529 130.80106282 C-28.62721146 121.44617298 -26.8509835 112.09175329 -25.07328796 102.73760986 C-23.23813954 93.08087066 -21.40758208 83.42326886 -19.57916635 73.76525283 C-18.00739573 65.46387553 -16.43262976 57.16307025 -14.85547072 48.86271501 C-13.91414842 43.90844425 -12.9740269 38.95395301 -12.03686333 33.99889374 C-11.1579535 29.35246593 -10.27533111 24.70675905 -9.38977242 20.06159401 C-9.06469709 18.3529523 -8.7409704 16.6440534 -8.4186554 14.93488884 C-7.98041672 12.61214192 -7.53743202 10.29035119 -7.09317017 7.96875 C-6.965155 7.28405065 -6.83713984 6.59935131 -6.70524544 5.89390349 C-5.66857483 0.52324079 -5.42970411 0.01818992 0 0 Z M46.30439758 47.14044189 C45.50676324 50.86835693 44.71744679 54.59798989 43.92939758 58.32794189 C43.70767883 59.36370361 43.48596008 60.39946533 43.25752258 61.46661377 C41.67344764 68.99096973 40.40209345 76.53031984 39.30439758 84.14044189 C44.53304501 84.21520258 49.76137387 84.26932953 54.99043274 84.30523682 C56.76522754 84.32022283 58.53998595 84.34061871 60.31465149 84.36676025 C77.94024766 84.88358818 77.94024766 84.88358818 93.30439758 77.14044189 C98.07867235 70.84825912 100.19883673 65.15844995 99.30439758 57.14044189 C97.65943398 53.43927378 95.80075723 51.17998502 92.30439758 49.14044189 C86.77342899 47.20969193 81.91844382 46.87147832 76.08955383 46.94512939 C75.23381271 46.94795929 74.37807159 46.95078918 73.49639893 46.95370483 C70.78641767 46.96482255 68.07677749 46.98991107 65.36689758 47.01544189 C63.51989718 47.02548258 61.67289155 47.03460652 59.82588196 47.04278564 C55.31859082 47.06473426 50.81155186 47.09920535 46.30439758 47.14044189 Z " fill="#0C61AC" transform="translate(1040.6956024169922,151.85955810546875)"/>
<path d="M0 0 C52.8 0 105.6 0 160 0 C157.60509801 16.76431395 154.23228499 33.37682005 151 50 C101.5 50.495 101.5 50.495 51 51 C49.68 57.93 48.36 64.86 47 72 C91.55 72.495 91.55 72.495 137 73 C135.58111671 82.22274139 134.06571746 91.37955815 132.34057617 100.54272461 C131.93093127 102.72245235 131.52686531 104.90317055 131.12304688 107.08398438 C130.86231077 108.47662463 130.60125548 109.86920516 130.33984375 111.26171875 C129.98974243 113.13283325 129.98974243 113.13283325 129.63256836 115.04174805 C129 118 129 118 128 120 C97.97 120 67.94 120 37 120 C36.67 123.3 36.34 126.6 36 130 C35.01 134.29 34.02 138.58 33 143 C66.99 143 100.98 143 136 143 C127 192 127 192 126 193 C123.89906175 193.09687035 121.79480483 193.12186861 119.69163513 193.12025452 C118.69192494 193.12153615 118.69192494 193.12153615 117.67201859 193.12284368 C115.42251366 193.12450035 113.17308212 193.11897411 110.92358398 193.11352539 C109.31754559 193.11324353 107.71150707 193.11340122 106.10546875 193.1139679 C101.73168933 193.11425593 97.35793708 193.10835832 92.984164 193.10139394 C88.41840422 193.09516131 83.85264387 193.09455667 79.28688049 193.09336853 C70.63478695 193.09025495 61.98270597 193.08204119 53.33061796 193.07201904 C43.48314177 193.06085874 33.63566499 193.05534766 23.78818405 193.05032361 C3.525449 193.0398586 -16.73727471 193.02225864 -37 193 C-33.27012161 171.7356832 -29.29922669 150.52093053 -25.26616001 129.3123908 C-24.58694396 125.73986479 -23.90860122 122.16717313 -23.23020625 118.59449112 C-21.63265497 110.18152701 -20.03339503 101.76888895 -18.43310547 93.35644531 C-16.78462503 84.69045346 -15.13957243 76.02381548 -13.49604058 67.35688388 C-12.07640938 59.87144372 -10.65449082 52.38644049 -9.23075843 44.90177929 C-8.38378229 40.44896983 -7.53772806 35.99599009 -6.69397736 31.54256821 C-5.9053157 27.38035292 -5.11381941 23.21868688 -4.32008553 19.05743599 C-4.02919361 17.52974708 -3.73933024 16.00186192 -3.45055199 14.47377205 C-3.05761462 12.39538079 -2.66103332 10.31771801 -2.26348877 8.24020386 C-2.0423 7.07639631 -1.82111122 5.91258877 -1.59321976 4.71351433 C-1 2 -1 2 0 0 Z " fill="#0C61AC" transform="translate(690,152)"/>
<path d="M0 0 C21.16056515 -0.50785356 43.34693309 4.31821489 59.6171875 18.5546875 C61.17713403 20.05676505 62.72037506 21.57648732 64.2421875 23.1171875 C64.86609375 23.71917969 65.49 24.32117188 66.1328125 24.94140625 C81.27793418 40.66640871 84.70708075 62.55428071 84.45703125 83.48828125 C83.561097 115.9812009 69.7573946 146.05615719 47.2421875 169.1171875 C46.57703125 169.84421875 45.911875 170.57125 45.2265625 171.3203125 C25.98267021 191.85791183 -4.32152665 202.10165354 -31.765625 203.2421875 C-55.31630791 203.70510019 -78.0816057 197.89175637 -95.6328125 181.4375 C-113.48562132 161.94380801 -117.10296722 139.02844679 -115.98535156 113.46386719 C-115.44175581 105.46857692 -113.93954438 97.81721961 -111.7578125 90.1171875 C-111.55414062 89.39563477 -111.35046875 88.67408203 -111.140625 87.93066406 C-106.23060512 71.25326629 -97.94106961 55.42507031 -86.7578125 42.1171875 C-86.00113281 41.19808594 -85.24445313 40.27898437 -84.46484375 39.33203125 C-65.17889705 16.96285001 -36.94004126 3.35631137 -7.6953125 0.3046875 C-5.13046424 0.1680028 -2.56619756 0.10904522 0 0 Z M-37.78515625 64.45703125 C-50.3978585 81.60927459 -58.24307349 104.9832069 -55.296875 126.48046875 C-53.49029918 136.37412809 -50.70268698 143.57298464 -42.3828125 149.5546875 C-34.9567522 154.04515277 -27.16131934 155.32406212 -18.6796875 153.4296875 C-3.88881753 149.30200286 5.54757926 140.99675128 13.31640625 127.91796875 C16.97680081 121.05587111 19.15794424 113.57899853 21.2421875 106.1171875 C21.5103125 105.17488281 21.7784375 104.23257813 22.0546875 103.26171875 C24.8298117 91.13982209 25.77332158 74.0664417 19.2421875 63.1171875 C13.90007701 55.36848268 7.53435419 51.07343312 -1.7578125 49.1171875 C-15.2741232 47.99082827 -28.93257192 54.23988671 -37.78515625 64.45703125 Z " fill="#0C61AC" transform="translate(1311.7578125,146.8828125)"/>
<path d="M0 0 C49.5 0 99 0 150 0 C150 16.5 150 33 150 50 C120.3 50 90.6 50 60 50 C60 57.59 60 65.18 60 73 C85.41 73 110.82 73 137 73 C137 88.51 137 104.02 137 120 C111.59 120 86.18 120 60 120 C60 144.09 60 168.18 60 193 C40.2 193 20.4 193 0 193 C0 129.31 0 65.62 0 0 Z " fill="#EC3136" transform="translate(96,152)"/>
<path d="M0 0 C55.44 0 110.88 0 168 0 C167.37553249 6.86914265 166.70971725 13.38058494 165.40625 20.09765625 C165.17887146 21.29907509 165.17887146 21.29907509 164.94689941 22.52476501 C164.6300217 24.193012 164.31063309 25.86078395 163.98876953 27.52807617 C163.49523606 30.08720254 163.01072842 32.64792361 162.52734375 35.20898438 C162.21666824 36.83864134 161.90548908 38.4682024 161.59375 40.09765625 C161.44893188 40.86215591 161.30411377 41.62665558 161.15490723 42.4143219 C160.11585599 47.76828801 160.11585599 47.76828801 159 50 C141.18 50 123.36 50 105 50 C104.67 52.97 104.34 55.94 104 59 C103.67257945 61.01632276 103.32051758 63.02888895 102.93737793 65.03536987 C102.72709457 66.14566055 102.51681122 67.25595123 102.30015564 68.39988708 C102.0715535 69.58776321 101.84295135 70.77563934 101.60742188 71.99951172 C101.36504288 73.27372482 101.12266388 74.54793793 100.87294006 75.86076355 C100.21290189 79.32994077 99.54857031 82.7982827 98.88331032 86.26646185 C98.18619186 89.90410988 97.49270124 93.54244965 96.79870605 97.18069458 C95.63430293 103.28205379 94.46718505 109.38288874 93.29833984 115.48339844 C91.94706084 122.53621228 90.59969076 129.5897641 89.25447989 136.64373767 C87.95844893 143.43952544 86.66007554 150.23486344 85.36048889 157.02997208 C84.80798478 159.91892615 84.25623029 162.80802191 83.70506287 165.69723129 C82.93667415 169.72424236 82.16482215 173.75058194 81.39257812 177.77685547 C81.16397598 178.97687698 80.93537384 180.1768985 80.69984436 181.4132843 C80.489561 182.50665604 80.27927765 183.60002777 80.06262207 184.72653198 C79.88048409 185.67811628 79.6983461 186.62970058 79.51068878 187.61012077 C79 190 79 190 78 193 C58.2 193 38.4 193 18 193 C19.12502903 181.74970966 19.12502903 181.74970966 20.06262207 176.83764648 C20.27290543 175.72453598 20.48318878 174.61142548 20.69984436 173.46458435 C20.9284465 172.27873245 21.15704865 171.09288055 21.39257812 169.87109375 C21.75614662 167.95714561 21.75614662 167.95714561 22.12705994 166.00453186 C22.78624518 162.53531501 23.45086294 159.06716014 24.11668968 155.59921265 C24.81436433 151.96120859 25.50750194 148.32233984 26.20129395 144.68359375 C27.36503565 138.58388701 28.53226105 132.48485498 29.70166016 126.38623047 C31.05406126 119.33301988 32.40120704 112.27882109 33.74552011 105.22406483 C35.04071613 98.42757743 36.33928448 91.63173882 37.63951111 84.83621216 C38.19237352 81.9464993 38.74410266 79.05657347 39.29493713 76.16647339 C40.06227423 72.14155805 40.83456911 68.11760987 41.60742188 64.09375 C41.83602402 62.89170425 42.06462616 61.68965851 42.30015564 60.45118713 C42.510439 59.36063522 42.72072235 58.27008331 42.93737793 57.14648438 C43.11951591 56.1952771 43.3016539 55.24406982 43.48931122 54.26403809 C44 52 44 52 45 50 C27.18 50 9.36 50 -9 50 C-6.09842041 33.31591736 -3.0835932 16.65140327 0 0 Z " fill="#0C61AC" transform="translate(859,152)"/>
<path d="M0 0 C2.77388373 0.19639039 5.54823089 0.38528396 8.32263184 0.57421875 C82.95905705 5.73389886 157.45175361 16.97397968 229.59313965 37.05859375 C230.2928891 37.25177185 230.99263855 37.44494995 231.71359253 37.64398193 C233.67566865 38.1882831 235.63449945 38.74424279 237.59313965 39.30078125 C239.26376465 39.77427002 239.26376465 39.77427002 240.96813965 40.25732422 C243.59313965 41.18359375 243.59313965 41.18359375 245.59313965 43.18359375 C236.66110078 42.163552 227.78524299 40.93633687 218.91345215 39.484375 C158.60160891 29.62794634 97.91875482 22.9560796 36.90563965 19.43359375 C35.87972717 19.37433716 34.8538147 19.31508057 33.79681396 19.25402832 C26.73081194 18.85331311 19.66329245 18.50235559 12.59313965 18.18359375 C11.01149017 18.11100845 11.01149017 18.11100845 9.39788818 18.03695679 C-13.28314718 17.03099583 -35.95813365 16.98191256 -58.65686035 16.99609375 C-60.09539934 16.99649406 -60.09539934 16.99649406 -61.56299973 16.99690247 C-91.88637076 17.0074776 -122.13412623 17.26032858 -152.40686035 19.18359375 C-153.45464661 19.24911438 -154.50243286 19.31463501 -155.58197021 19.38214111 C-252.6476522 25.4950049 -349.87392035 38.92819058 -561.71789551 107.93383789 C-562.70837891 108.36301514 -563.6988623 108.79219238 -564.71936035 109.234375 C-565.58174316 109.61247314 -566.44412598 109.99057129 -567.3326416 110.38012695 C-569.40686035 111.18359375 -569.40686035 111.18359375 -571.40686035 111.18359375 C-572.06686035 108.87359375 -572.72686035 106.56359375 -573.40686035 104.18359375 C-519.20449949 74.21693819 -459.04140909 54.15984227 -399.40686035 38.18359375 C-398.52919006 37.94811829 -397.65151978 37.71264282 -396.74725342 37.47003174 C-320.05994495 16.96768852 -241.53636795 5.55748412 -162.40686035 0.18359375 C-161.53865662 0.12300781 -160.67045288 0.06242187 -159.77593994 0 C-106.96577394 -3.66675373 -52.80831975 -3.74287446 0 0 Z " fill="#0C61AB" transform="translate(926.4068603515625,74.81640625)"/>
<path d="M0 0 C3.87726314 2.01043274 6.89824862 4.12835271 9 8 C10.20323792 12.99806519 10.13855869 16.3155381 8 21 C5.46531403 24.84573044 3.49570868 26.84993499 -1 28 C-6.24665744 28.47696886 -9.55844889 27.86233294 -14 25 C-17.45235388 21.73425984 -18.72791771 18.83423451 -19.09765625 14.0546875 C-18.86535393 9.16704663 -16.95185655 5.88220851 -13.4375 2.625 C-8.9380852 -0.37460987 -5.3410846 -0.65639592 0 0 Z " fill="#0C60AB" transform="translate(1193,109)"/>
<path d="M0 0 C2.49302607 2.30604911 4.0497934 4.25095273 5.5 7.3125 C5.5 7.9725 5.5 8.6325 5.5 9.3125 C3.52 9.3125 1.54 9.3125 -0.5 9.3125 C-0.726875 8.69375 -0.95375 8.075 -1.1875 7.4375 C-2.9628632 4.56310243 -4.23488994 4.11063802 -7.5 3.3125 C-11.63297012 3.38500825 -13.72708355 3.64128309 -16.875 6.375 C-19.311942 10.7802413 -20.02884293 14.64956527 -19.05859375 19.53515625 C-17.98717238 22.90860297 -17.19830657 24.82756488 -14.25 26.875 C-9.32482115 27.65855118 -5.64604312 27.07652875 -1.5 24.3125 C-0.84 22.6625 -0.18 21.0125 0.5 19.3125 C-3.13 19.3125 -6.76 19.3125 -10.5 19.3125 C-10.5 17.9925 -10.5 16.6725 -10.5 15.3125 C-5.22 15.3125 0.06 15.3125 5.5 15.3125 C5.5 20.9225 5.5 26.5325 5.5 32.3125 C4.18 31.9825 2.86 31.6525 1.5 31.3125 C-0.5745356 31.1634288 -0.5745356 31.1634288 -2.5 32.3125 C-4.60053716 32.46151491 -6.70687825 32.53388453 -8.8125 32.5625 C-9.94300781 32.58828125 -11.07351562 32.6140625 -12.23828125 32.640625 C-17.09683446 32.15186037 -19.57440424 30.36665073 -22.75 26.75 C-26.61524381 21.36626755 -26.03879018 15.76258815 -25.5 9.3125 C-24.26925887 4.99749193 -21.9492771 2.67008789 -18.4375 -0.125 C-12.51353044 -3.07421761 -5.85527586 -2.82307943 0 0 Z " fill="#0E61AB" transform="translate(133.5,96.6875)"/>
<path d="M0 0 C4.04745778 1.46284523 6.77052687 4.36243858 9 8 C10.79560958 13.38682874 10.96286167 19.72859049 9.3515625 25.203125 C7.49572666 28.85134931 4.85686435 31.51107308 1.19140625 33.33984375 C-4.78436127 35.1400304 -10.86246575 34.99242662 -16.5 32.375 C-21.53552126 27.59125481 -23.25453726 24.49235852 -23.4375 17.5 C-23.27146847 12.6352763 -22.98128876 9.00931936 -20 5 C-13.68020377 -0.70323075 -8.33427996 -0.74014895 0 0 Z M-13 6 C-16.41855507 9.22863534 -17.7405551 12.14616906 -18.08984375 16.875 C-17.9293515 20.67099065 -17.11119286 23.81865076 -15 27 C-10.94494706 29.757436 -7.98292444 30.28625129 -3.25 29.5 C-0.25781779 28.65526829 0.82589484 28.18498673 3 25.875 C4.80840975 20.67582196 5.82707364 16.35832017 3.75 11.1875 C1.90975085 7.56363805 1.90975085 7.56363805 -1 5 C-5.62584497 3.88637066 -8.84630893 3.53023774 -13 6 Z " fill="#0D61AB" transform="translate(261,95)"/>
<path d="M0 0 C3.526875 -0.103125 7.05375 -0.20625 10.6875 -0.3125 C11.79053467 -0.35802002 12.89356934 -0.40354004 14.0300293 -0.45043945 C18.76636445 -0.51758772 21.23061357 -0.54983212 25.17578125 2.26953125 C27.71697501 6.0731596 27.85432654 8.58597955 27 13 C25.5 16 25.5 16 24 18 C24.66 18.66 25.32 19.32 26 20 C26.4313523 21.98478443 26.77491843 23.98934566 27.0625 26 C27.58603718 30.13905115 27.58603718 30.13905115 29 34 C26.36 34 23.72 34 21 34 C20.96261719 33.24074219 20.92523438 32.48148438 20.88671875 31.69921875 C20.82097656 30.70535156 20.75523437 29.71148437 20.6875 28.6875 C20.62949219 27.70136719 20.57148438 26.71523437 20.51171875 25.69921875 C20.17951551 23.03397761 20.17951551 23.03397761 18.84375 21.1875 C16.19916177 19.48420588 13.93024408 19.48012065 10.8125 19.3125 C8.894375 19.209375 6.97625 19.10625 5 19 C5 23.95 5 28.9 5 34 C3.35 34 1.7 34 0 34 C0 22.78 0 11.56 0 0 Z M5 4 C5 7.63 5 11.26 5 15 C6.91635217 15.05423638 8.83314925 15.09289963 10.75 15.125 C11.81734375 15.14820312 12.8846875 15.17140625 13.984375 15.1953125 C16.95367764 15.00300015 18.56243862 14.66300916 21 13 C22.16977494 10.65127469 22.16977494 10.65127469 22 8 C20.47404352 5.71191285 20.47404352 5.71191285 18 4 C14.72599522 3.51736211 14.72599522 3.51736211 11.25 3.75 C10.07953125 3.78609375 8.9090625 3.8221875 7.703125 3.859375 C6.81109375 3.90578125 5.9190625 3.9521875 5 4 Z " fill="#0E61AB" transform="translate(147,95)"/>
<path d="M0 0 C1.65 0 3.3 0 5 0 C5.02505615 0.67579102 5.0501123 1.35158203 5.07592773 2.04785156 C5.19210742 5.1154168 5.31473437 8.18269158 5.4375 11.25 C5.47681641 12.31347656 5.51613281 13.37695312 5.55664062 14.47265625 C5.59853516 15.49746094 5.64042969 16.52226563 5.68359375 17.578125 C5.72025146 18.52075195 5.75690918 19.46337891 5.79467773 20.43457031 C5.9816586 22.77083068 6.22734855 24.78888523 7 27 C11.35378764 29.77059213 15.15990481 28.82035512 20 28 C20.78773917 24.46498542 21.17495802 21.09750212 21.31640625 17.48046875 C21.35830078 16.45888672 21.40019531 15.43730469 21.44335938 14.38476562 C21.48267578 13.32966797 21.52199219 12.27457031 21.5625 11.1875 C21.60568359 10.11306641 21.64886719 9.03863281 21.69335938 7.93164062 C21.79910983 5.28787918 21.90120233 2.6440289 22 0 C23.65 0 25.3 0 27 0 C27.08725659 4.2290362 27.1404789 8.45784012 27.1875 12.6875 C27.21263672 13.88568359 27.23777344 15.08386719 27.26367188 16.31835938 C27.27333984 17.47529297 27.28300781 18.63222656 27.29296875 19.82421875 C27.3086792 20.88729248 27.32438965 21.95036621 27.34057617 23.0456543 C26.94979995 26.43546298 26.00084885 28.26242311 24 31 C19.42648515 34.5169018 15.49007386 34.55381321 9.890625 34.4296875 C5.52904588 33.78134466 3.88131978 32.27068731 1 29 C-0.38308781 26.23382437 -0.11210196 23.98982 -0.09765625 20.8984375 C-0.09443359 19.68671875 -0.09121094 18.475 -0.08789062 17.2265625 C-0.07951172 15.95554687 -0.07113281 14.68453125 -0.0625 13.375 C-0.05798828 12.09625 -0.05347656 10.8175 -0.04882812 9.5 C-0.03701203 6.33328708 -0.02053815 3.16666644 0 0 Z " fill="#0E61AB" transform="translate(179,95)"/>
<path d="M0 0 C4.7953125 -0.1546875 4.7953125 -0.1546875 9.6875 -0.3125 C11.18543091 -0.38078003 11.18543091 -0.38078003 12.71362305 -0.45043945 C17.18892785 -0.52033086 19.3641503 -0.45189318 23.10546875 2.20703125 C25.09393955 5.1384882 25.67961036 6.50493725 25.625 10 C25.63789063 10.825 25.65078125 11.65 25.6640625 12.5 C24.67402837 16.22718733 23.06658518 17.70513824 20 20 C17.1612599 20.36771245 14.98179849 20.48630804 12.1875 20.3125 C11.49462891 20.28994141 10.80175781 20.26738281 10.08789062 20.24414062 C8.39098427 20.18562661 6.69520139 20.0959548 5 20 C5 24.62 5 29.24 5 34 C3.35 34 1.7 34 0 34 C0 22.78 0 11.56 0 0 Z M5 4 C5 7.96 5 11.92 5 16 C7.6296875 16.061875 7.6296875 16.061875 10.3125 16.125 C11.79169922 16.15980469 11.79169922 16.15980469 13.30078125 16.1953125 C16.22406527 16.20682639 16.22406527 16.20682639 19 14 C19.91778291 11.07665027 19.91778291 11.07665027 20 8 C18.27773504 4.75150023 18.27773504 4.75150023 15 4 C13.27204648 3.93197033 11.54164635 3.91504355 9.8125 3.9375 C7.4303125 3.9684375 7.4303125 3.9684375 5 4 Z " fill="#0E61AB" transform="translate(212,95)"/>
</svg>
